{"title":"Urok.2014.DVDRip.XviD.5rFF","uid":14130826,"size":1757211730,"categoryP":"video","categoryS":"movies","magnet":"?xt=urn:btih:8eacbfcc175b0544a4487c2508e9982ba22e322b&amp;dn=Urok.2014.DVDRip.XviD.5rFF&amp;tr=udp%3A%2F%2Ftracker.leechers-paradise.org%3A6969&amp;tr=udp%3A%2F%2Fzer0day.ch%3A1337&amp;tr=udp%3A%2F%2Fopen.demonii.com%3A1337&amp;tr=udp%3A%2F%2Ftracker.coppersurfer.tk%3A6969&amp;tr=udp%3A%2F%2Fexodus.desync.com%3A6969","seeders":0,"leechers":1,"uploader":"noriegaRJ","files":2,"time":1459553789,"description":"Title: Urok aka The Lesson\r\n\r\nRelease: Urok.2014.DVDRip.XviD.5rFF\r\n\r\n\r\nIMDB Link:                                                              \nhttp://www.imdb.com/title/tt3958072/\r\n\r\n\r\nPlot: In a small Bulgarian town Nadezhda, a young teacher, is looking for the robber in her class so she can teach him a lesson about right and wrong. But when she gets in debt to loan sharks, can she find the right way out herself?\r\n\r\n\r\n\r\nGeneral\r\nComplete name                            : Urok.2014.DVDRip.XviD.5rFF\r\nFormat                                   : AVI\r\nFormat/Info                              : Audio Video Interleave\r\nFormat profile                           : OpenDML\r\nFormat settings                          : rec\r\nFile size                                : 1.64 GiB\r\nDuration                                 : 1h 51mn\r\nOverall bit rate                         : 2 103 Kbps\r\nWriting application                      : AVI-Mux GUI 1.17.8, Aug 30 2008  12:36:58\r\n\r\nVideo\r\nID                                       : 0\r\nFormat                                   : MPEG-4 Visual\r\nFormat profile                           : Advanced   \r\nFormat settings, BVOP                    : 2\r\nFormat settings, QPel                    : No\r\nFormat settings, GMC                     : No warppoints\r\nFormat settings, Matrix                  : Default (H.263)\r\nMuxing mode                              : Packed bitstream\r\nCodec ID                                 : XVID\r\nCodec ID/Hint                            : XviD\r\nDuration                                 : 1h 51mn\r\nBit rate                                 : 1 650 Kbps\r\nWidth                                    : 720 pixels\r\nHeight                                   : 384 pixels\r\nDisplay aspect ratio                     : 1.85:1\r\nFrame rate                               : 23.976 fps\r\nColor space                              : YUV\r\nChroma subsampling                       : 4:2:0\r\nBit depth                                : 8 bits\r\nScan type                                : Progressive\r\nCompression mode                         : Lossy\r\nBits/(Pixel*Frame)                       : 0.249\r\nStream size                              : 1.28 GiB (78%)\r\nWriting library                          : XviD 1.2.1 (UTC 2008-12-04)\r\n\r\nAudio\r\nID                                       : 1\r\nFormat                                   : AC-3\r\nFormat/Info                              : Audio Coding 3\r\nMode extension                           : CM (complete main)\r\nFormat settings, Endianness              : Big\r\nCodec ID                                 : 2000\r\nDuration                                 : 1h 51mn\r\nBit rate mode                            : Constant\r\nBit rate                                 : 448 Kbps\r\nChannel count                            : 6 channels\r\nChannel positions                        : Front: L C R, Side: L R, LFE\r\nSampling rate                            : 48.0 KHz\r\nBit depth                                : 16 bits\r\nCompression mode                         : Lossy\r\nStream size                              : 357 MiB (21%)\r\nAlignment                                : Aligned on interleaves\r\nInterleave, duration                     : 64 ms (1.53 video frames)\r\nInterleave, preload duration             : 192 ms\r\nTitle                                    : 5roff-urok T81 3_2ch 448Kbps DELAY 0ms\r\n\r\n\r\n\r\nThanks to those helping me seed. Leechers remember, the community depends on you. If nobody shares, the freebies go away. Remember, the only reason you can download this free movie is because others are generous enough to keep sharing it with you. If nobody shares, everybody loses, so even if its for an extra hour or two after you get it, remember, others want to see it too, and they can't without you.\r\n\r\n\r\nSEE MY OTHERS UPLOADS:                                                                                      \nhttp://thepiratebay.se/user/noriegaRJ\r\n\r\nAND SEE THIS ANOTHERS UPLOADS FROM &quot;HORiZON-ArtSubs&quot;:                                      \nhttp://thepiratebay.se/user/artsubs                                      \nhttp://thepiratebay.se/user/lletaif","torrent":{"xt":"urn:btih:8eacbfcc175b0544a4487c2508e9982ba22e322b","amp;dn":"Urok.2014.DVDRip.XviD.5rFF","amp;tr":["udp%3A%2F%2Ftracker.leechers-paradise.org%3A6969","udp%3A%2F%2Fzer0day.ch%3A1337","udp%3A%2F%2Fopen.demonii.com%3A1337","udp%3A%2F%2Ftracker.coppersurfer.tk%3A6969","udp%3A%2F%2Fexodus.desync.com%3A6969"],"infoHash":"8eacbfcc175b0544a4487c2508e9982ba22e322b","infoHashBuffer":{"type":"Buffer","data":[142,172,191,204,23,91,5,68,164,72,124,37,8,233,152,43,162,46,50,43]},"announce":[],"urlList":[]}}